<?xml version="1.0" standalone="no"?>
<!DOCTYPE svg PUBLIC "-//W3C//DTD SVG 20010904//EN"
 "http://www.w3.org/TR/2001/REC-SVG-20010904/DTD/svg10.dtd">
<svg version="1.0" xmlns="http://www.w3.org/2000/svg"
 width="1024.000000pt" height="1024.000000pt" viewBox="0 0 1024.000000 1024.000000"
 preserveAspectRatio="xMidYMid meet">

<g transform="translate(0.000000,1024.000000) scale(0.100000,-0.100000)"
fill="#000000" stroke="none">
<path d="M0 5120 l0 -5120 5120 0 5120 0 0 5120 0 5120 -5120 0 -5120 0 0
-5120z m5452 3440 c308 -17 518 -55 799 -146 327 -104 691 -304 989 -541 496
-396 898 -1038 1064 -1703 24 -96 51 -233 60 -305 35 -291 30 -688 -14 -950
-37 -225 -129 -519 -232 -743 -101 -222 -303 -524 -473 -711 -94 -103 -449
-431 -467 -431 -10 0 -18 -4 -18 -9 0 -6 -57 -52 -126 -104 -147 -110 -369
-241 -393 -232 -8 3 -12 3 -8 -1 9 -9 -71 -56 -211 -123 -133 -64 -133 -63
-130 49 l3 74 70 26 c262 98 528 264 820 514 98 83 321 311 394 402 315 391
544 927 611 1429 18 136 24 508 11 651 -51 546 -258 1062 -620 1544 -94 126
-313 357 -431 455 -108 90 -319 239 -425 300 -468 271 -940 388 -1494 372
-446 -13 -841 -112 -1251 -316 -428 -212 -800 -542 -1080 -961 -120 -179 -280
-481 -346 -653 -187 -486 -231 -1155 -111 -1667 67 -283 209 -619 375 -885
142 -229 268 -383 475 -580 277 -264 648 -502 955 -615 34 -12 61 -25 58 -27
-6 -7 -194 58 -281 96 -58 26 -66 27 -45 10 14 -12 24 -25 23 -30 -2 -5 5 -5
14 -2 11 4 14 3 9 -5 -4 -7 -2 -10 7 -6 8 3 14 -2 14 -11 0 -8 -7 -15 -14 -15
-8 0 -3 -10 13 -25 15 -14 30 -25 34 -25 3 0 17 -10 29 -21 19 -18 25 -19 32
-8 7 11 9 10 9 -4 0 -14 5 -17 21 -12 15 5 19 4 15 -4 -5 -7 4 -16 22 -22 17
-6 33 -17 36 -25 3 -8 3 -14 1 -14 -19 0 -154 59 -270 119 -243 124 -390 217
-561 356 -41 33 -96 77 -122 97 -152 120 -351 326 -437 452 -30 44 -61 84 -69
88 -25 14 -190 256 -244 358 -53 98 -147 322 -202 477 -27 76 -57 191 -99 378
-26 117 -42 273 -47 460 -19 680 162 1300 547 1876 113 169 200 275 367 442
162 163 302 278 492 402 475 310 980 471 1595 508 28 2 57 4 65 5 8 1 95 -3
192 -8z m-303 -531 c13 -79 42 -361 38 -365 -2 -2 -23 -4 -47 -6 l-45 -3 -6
91 c-11 145 -26 187 -43 118 -7 -27 -84 -154 -93 -154 -3 0 -39 30 -79 66
l-74 66 1 -34 c0 -18 6 -68 13 -110 7 -43 10 -82 6 -87 -6 -11 -55 -31 -76
-31 -8 0 -14 9 -14 20 0 15 -59 348 -72 411 -3 14 103 43 113 31 63 -77 162
-192 164 -190 1 2 21 48 44 103 23 55 45 107 50 115 9 16 41 27 82 29 25 1 27
-3 38 -70z m601 37 c45 -19 105 -81 125 -128 49 -119 -27 -260 -162 -299 -138
-38 -305 84 -306 224 -1 91 67 184 154 213 51 16 138 12 189 -10z m593 -186
c90 -37 134 -71 153 -117 20 -46 17 -90 -7 -140 -23 -48 -61 -73 -109 -73
l-31 0 7 -84 c8 -96 0 -109 -46 -76 -25 18 -30 29 -31 63 -2 79 -12 100 -54
124 -22 12 -45 23 -51 23 -6 0 -23 -27 -37 -61 l-26 -61 -38 23 c-21 12 -42
25 -46 29 -5 4 7 39 27 76 19 38 61 131 92 207 l56 137 32 -19 c17 -10 66 -33
109 -51z m-2163 -59 c0 -31 104 -311 116 -311 2 0 49 20 103 45 54 25 102 45
108 45 5 0 19 -20 30 -44 l22 -44 -47 -17 c-26 -10 -93 -41 -149 -70 l-103
-53 -19 31 c-10 18 -45 91 -76 162 -32 72 -68 152 -82 178 -13 27 -23 50 -21
50 2 1 26 14 53 28 54 27 65 27 65 0z m-352 -250 l22 -39 -44 -29 c-78 -50
-156 -113 -156 -126 0 -21 58 -83 67 -72 4 6 30 28 58 50 27 22 58 48 67 58
24 23 33 22 57 -12 l20 -28 -59 -49 c-32 -27 -70 -57 -84 -67 -32 -22 -33 -37
-2 -66 l24 -22 108 71 c80 53 110 67 116 58 42 -62 42 -63 -20 -103 -68 -46
-192 -143 -209 -165 -7 -9 -12 -10 -13 -3 0 6 -24 40 -54 75 -29 35 -82 106
-116 158 -35 52 -74 107 -88 122 l-24 26 33 18 c38 19 116 75 197 141 29 24
59 43 66 43 7 0 22 -18 34 -39z m3060 -24 c42 -35 106 -83 140 -106 l64 -43
-33 -34 c-18 -19 -39 -34 -47 -34 -7 0 -39 22 -70 48 -31 26 -73 60 -93 74
l-36 27 -22 -29 c-11 -16 -21 -34 -21 -39 0 -6 34 -39 76 -73 l76 -62 -33 -27
-33 -27 -50 38 c-81 60 -93 64 -123 45 l-25 -17 87 -88 88 -88 -28 -35 -29
-35 -85 78 c-47 43 -104 94 -126 113 l-40 36 32 33 c17 18 49 56 70 84 42 57
176 222 181 223 1 1 37 -28 80 -62z m-1436 -201 c100 -38 551 -243 823 -373
138 -66 295 -140 350 -164 55 -24 123 -56 150 -73 28 -16 72 -39 99 -51 l50
-22 2 -739 c1 -406 -2 -782 -7 -834 -9 -98 -34 -210 -69 -304 -27 -71 -112
-209 -180 -292 -156 -188 -615 -538 -911 -693 -146 -77 -404 -182 -449 -183
-47 -1 -246 70 -396 141 -200 96 -509 298 -695 456 -189 159 -228 196 -310
287 -94 105 -149 201 -193 333 -61 188 -59 149 -63 1022 l-4 802 178 87 c98
47 232 111 298 141 66 30 201 93 300 138 220 102 699 317 740 333 17 7 52 23
80 36 l49 24 48 -24 c26 -13 76 -35 110 -48z m1646 -208 c30 -30 -5 -119 -41
-105 -13 5 -17 19 -17 55 0 27 3 52 7 55 10 11 38 8 51 -5z m-3766 -164 c63
-44 93 -103 93 -184 -1 -78 -25 -132 -85 -182 -90 -78 -195 -76 -286 4 -98 87
-99 242 -1 340 47 47 82 59 164 55 61 -2 78 -7 115 -33z m4145 11 c211 -106
142 -435 -92 -435 -117 0 -222 91 -241 207 -13 83 44 195 117 231 63 31 149
30 216 -3z m303 -520 c117 -59 124 -244 13 -320 -30 -20 -50 -25 -96 -25 -114
0 -172 56 -172 165 0 150 131 242 255 180z m-4795 -19 c66 -50 100 -154 74
-223 -22 -59 -98 -112 -163 -115 -54 -2 -124 38 -158 91 -26 40 -29 53 -26
103 5 65 40 127 91 159 47 30 132 23 182 -15z m4283 -148 c55 -52 65 -104 31
-170 -22 -43 -22 -46 -15 -281 l1 -29 368 4 c321 3 367 1 367 -12 0 -8 3 -39
6 -67 l7 -53 -457 0 -456 0 0 29 c0 16 7 34 15 41 16 13 22 52 29 202 l6 106
-30 10 c-36 13 -70 65 -70 108 0 17 10 51 23 75 41 78 114 94 175 37z m-3802
-12 c32 -31 44 -51 44 -73 0 -30 -43 -107 -73 -132 -14 -11 -17 -34 -17 -137
0 -117 1 -124 20 -124 18 0 20 -7 20 -65 l0 -65 -466 0 c-438 0 -465 1 -461
18 3 9 8 38 12 65 l6 47 375 0 374 0 0 124 c0 114 -2 128 -25 167 -43 76 -25
155 47 199 55 33 94 27 144 -24z m-1995 -702 c26 -5 30 -10 27 -32 -3 -29 -10
-30 -79 -17 -47 9 -79 -19 -79 -68 0 -56 19 -71 78 -64 53 6 82 -7 82 -38 0
-18 -23 -25 -89 -25 -69 0 -103 22 -121 76 -16 46 -6 96 27 135 41 49 56 52
154 33z m289 -14 c0 -11 1 -23 3 -27 1 -5 -15 -6 -35 -5 -26 3 -38 -1 -39 -10
0 -7 -1 -51 -2 -98 -2 -80 -3 -85 -24 -88 -22 -3 -23 -1 -23 92 l0 96 -35 0
c-32 0 -35 2 -35 30 l0 30 95 0 c88 0 95 -1 95 -20z m235 -10 c0 -23 -4 -25
-52 -28 -48 -3 -53 -5 -53 -27 0 -21 5 -24 48 -27 40 -3 47 -6 50 -26 3 -22 2
-23 -47 -16 l-51 7 0 -47 c0 -42 -2 -46 -25 -46 l-25 0 0 118 0 117 78 0 c75
0 77 0 77 -25z m6745 15 c32 -16 48 -51 31 -68 -7 -7 -16 -6 -28 5 -31 28 -64
27 -93 -4 -25 -27 -26 -59 -1 -89 17 -21 28 -24 82 -24 71 0 87 -15 40 -39
-85 -44 -191 15 -191 107 0 34 7 46 44 83 47 47 70 53 116 29z m304 -1 c14
-36 7 -44 -40 -44 l-46 0 3 -92 c4 -96 -4 -115 -38 -87 -13 11 -15 28 -10 96
l6 83 -39 0 c-38 0 -40 2 -40 30 l0 30 99 0 c81 0 100 -3 105 -16z m226 -9 c0
-24 -2 -25 -65 -25 l-65 0 0 -30 c0 -30 1 -30 55 -30 48 0 55 -2 55 -20 0 -18
-7 -20 -55 -20 l-55 0 0 -50 c0 -27 -4 -50 -8 -50 -25 0 -32 30 -32 137 l0
113 85 0 c84 0 85 0 85 -25z m-1577 -75 l347 0 0 -65 0 -65 -471 0 c-426 0
-471 2 -465 16 3 9 6 37 6 64 0 59 4 60 140 54 52 -2 251 -4 443 -4z m-4227
-16 c-3 -9 -6 -38 -6 -65 l0 -49 -460 0 -460 0 0 65 0 65 466 0 c421 0 466 -2
460 -16z m-6 -371 c0 -65 -6 -79 -35 -85 -19 -3 -20 -10 -16 -190 l3 -186 482
-478 c264 -264 537 -535 605 -604 l123 -125 -5 -705 c-3 -388 -10 -718 -14
-735 -10 -34 -41 -43 -86 -26 l-27 10 0 712 0 712 -24 16 c-32 21 -520 513
-878 884 l-286 297 -4 204 c-1 112 -7 208 -11 213 -5 4 -173 9 -373 11 -343 3
-364 4 -364 21 0 10 -3 39 -6 65 l-7 46 462 0 461 0 0 -57z m4573 37 c-1 -8
-4 -36 -8 -62 l-6 -48 -372 -2 c-322 -3 -372 -5 -369 -18 9 -38 13 -339 5
-372 -11 -49 -128 -174 -715 -761 l-478 -479 -2 -692 c-3 -570 -5 -696 -17
-709 -9 -11 -10 -17 -2 -17 6 0 11 -4 11 -10 0 -5 -12 -10 -26 -10 -14 0 -23
4 -19 10 6 9 -22 15 -52 11 -10 -2 -13 151 -13 732 l0 733 248 245 c466 463
608 604 773 775 l166 171 7 197 7 196 -31 0 c-29 0 -30 1 -30 49 0 27 -3 57
-6 65 -6 15 37 16 462 14 410 -3 469 -5 467 -18z m-400 -580 c150 -56 195
-244 86 -359 -12 -13 -47 -35 -77 -49 -108 -49 -228 -8 -283 97 -62 116 -17
250 104 310 53 26 101 27 170 1z m-4520 -4 c18 -7 51 -33 74 -58 65 -71 80
-155 42 -238 -26 -58 -53 -87 -111 -116 -84 -43 -171 -29 -237 37 -73 74 -90
165 -46 254 47 97 99 135 188 135 32 0 72 -6 90 -14z m4173 -578 c60 -62 118
-131 128 -152 l19 -40 -27 -23 c-15 -13 -33 -23 -40 -23 -33 0 -316 267 -316
298 0 11 16 34 35 51 34 29 37 30 63 17 15 -8 77 -65 138 -128z m-3800 89 c38
-33 28 -55 -80 -162 -98 -99 -176 -155 -213 -155 -19 0 -23 5 -23 33 0 42 42
109 106 168 168 157 164 155 210 116z m314 -277 c79 -40 140 -157 125 -238
-17 -94 -93 -182 -172 -201 -74 -18 -172 8 -231 63 -68 61 -84 172 -38 263 30
60 93 117 144 132 49 13 126 5 172 -19z m3151 20 c46 -13 115 -72 140 -122 26
-51 35 -126 20 -171 -35 -104 -139 -180 -244 -179 -162 2 -270 199 -192 352
52 103 163 151 276 120z m-1212 -600 c1 -303 -18 -1403 -25 -1447 -4 -24 -10
-33 -24 -33 -12 0 -20 7 -21 18 -1 16 -2 16 -6 0 -7 -28 -23 -21 -24 10 l-1
27 -7 -30 c-5 -24 -8 -27 -14 -12 -3 9 -7 402 -7 873 l-1 856 49 23 c27 13 53
29 58 36 16 25 22 -69 23 -321z m-763 210 c8 -53 -1 -1668 -10 -1677 -3 -4 -6
-1 -6 5 0 13 -71 -5 -83 -22 -5 -6 -6 -1 -2 12 4 13 2 22 -4 22 -8 0 -11 262
-11 878 l0 879 54 -26 c51 -24 55 -29 62 -71z m-768 -85 c78 -66 75 -146 -9
-227 -51 -50 -87 -60 -129 -38 -30 16 -70 92 -70 134 0 113 131 196 208 131z
m1150 -851 c-4 -736 -7 -877 -19 -885 -26 -16 -36 -10 -31 22 4 28 2 30 -17
24 -19 -6 -21 -2 -22 32 0 30 -2 34 -9 18 -6 -15 -9 -16 -11 -5 -1 8 -5 -16
-9 -55 -4 -38 -7 331 -8 822 -2 859 -1 891 16 886 10 -2 34 0 53 5 19 6 40 11
48 11 12 1 13 -131 9 -875z m1184 826 c53 -55 62 -94 34 -149 -23 -44 -83 -91
-116 -91 -56 0 -130 91 -130 160 0 69 61 130 129 130 28 0 43 -9 83 -50z
m-542 -1372 c0 16 64 15 113 -2 73 -26 109 -79 109 -157 -1 -105 -81 -179
-194 -179 -89 0 -175 144 -140 232 12 31 97 114 104 103 5 -6 8 -6 8 3z
m-1355 -27 c77 -44 102 -159 49 -228 -37 -49 -81 -73 -133 -73 -58 0 -123 38
-145 84 -31 65 -15 167 32 210 41 36 140 40 197 7z m743 -410 c50 -26 74 -69
74 -135 1 -66 -20 -104 -76 -140 -35 -24 -49 -27 -98 -24 -63 5 -96 27 -125
82 -32 62 -13 167 38 211 25 21 41 25 90 25 39 0 73 -7 97 -19z"/>
<path d="M7064 3096 c-10 -8 -17 -17 -14 -19 3 -3 14 1 24 9 11 7 17 16 15 19
-3 3 -14 -2 -25 -9z"/>
<path d="M3495 3090 c3 -5 11 -10 16 -10 6 0 7 5 4 10 -3 6 -11 10 -16 10 -6
0 -7 -4 -4 -10z"/>
<path d="M3550 3049 c0 -5 5 -7 10 -4 6 3 10 8 10 11 0 2 -4 4 -10 4 -5 0 -10
-5 -10 -11z"/>
<path d="M6995 3040 c-10 -11 -24 -20 -30 -20 -20 0 -38 -27 -24 -36 7 -4 9
-3 5 4 -3 6 2 13 11 17 23 7 67 44 61 50 -3 3 -13 -4 -23 -15z"/>
<path d="M6848 2942 c-16 -9 -28 -20 -28 -24 0 -12 5 -10 36 17 34 29 31 32
-8 7z"/>
<path d="M6785 2899 c-11 -16 -1 -19 13 -3 7 8 8 14 3 14 -5 0 -13 -5 -16 -11z"/>
<path d="M6750 2880 c-8 -5 -12 -12 -9 -15 4 -3 12 1 19 10 14 17 11 19 -10 5z"/>
<path d="M3845 2850 c-3 -5 -1 -10 4 -10 6 0 11 5 11 10 0 6 -2 10 -4 10 -3 0
-8 -4 -11 -10z"/>
<path d="M6575 2783 c-27 -15 -97 -46 -155 -69 -101 -41 -103 -43 -58 -41 25
1 44 4 42 6 -7 7 56 41 81 43 13 1 21 6 19 10 -5 8 10 12 34 9 6 -1 12 3 12 8
0 6 15 17 34 25 18 8 37 19 40 25 9 14 9 14 -49 -16z"/>
<path d="M3900 2775 c0 -8 2 -15 4 -15 2 0 6 7 10 15 3 8 1 15 -4 15 -6 0 -10
-7 -10 -15z"/>
<path d="M6650 2710 c0 -5 5 -10 11 -10 5 0 7 5 4 10 -3 6 -8 10 -11 10 -2 0
-4 -4 -4 -10z"/>
<path d="M6300 2661 c0 -6 4 -13 10 -16 6 -3 7 1 4 9 -7 18 -14 21 -14 7z"/>
<path d="M5585 7974 c-46 -24 -64 -44 -76 -85 -10 -32 -9 -43 8 -76 29 -56 74
-83 140 -83 46 0 58 4 89 33 71 65 52 175 -36 211 -51 20 -87 20 -125 0z"/>
<path d="M6223 7763 c-13 -31 -22 -58 -20 -59 20 -21 128 -74 148 -74 55 0 79
78 37 117 -17 16 -129 73 -142 73 0 0 -11 -26 -23 -57z"/>
<path d="M5177 7164 c-135 -55 -550 -242 -722 -324 -72 -34 -157 -73 -190 -87
-52 -22 -440 -213 -440 -217 0 0 3 -336 6 -746 5 -725 6 -747 27 -823 52 -186
159 -352 315 -484 154 -132 409 -323 554 -416 124 -79 285 -164 489 -257 l71
-32 40 21 c23 11 70 31 105 45 274 104 546 278 895 574 243 205 357 375 404
600 20 93 20 126 18 811 l-3 714 -303 149 c-166 81 -305 148 -309 148 -6 0
-309 139 -504 232 -90 42 -329 139 -341 137 -2 0 -53 -20 -112 -45z m255 -239
c193 -40 366 -181 455 -373 49 -104 71 -208 75 -342 l3 -115 -92 -3 -93 -3 0
105 c0 129 -12 190 -56 282 -65 138 -228 255 -375 270 -207 20 -395 -84 -482
-268 -51 -106 -61 -150 -61 -271 l-1 -108 -90 3 -90 3 0 130 c1 107 5 143 24
205 41 134 95 225 182 311 159 158 375 220 601 174z m-87 -627 c9 -49 -9 -68
-61 -68 -35 0 -44 13 -44 64 0 42 5 46 56 46 42 0 42 0 49 -42z m963 -10 l-3
-53 -52 -3 -53 -3 0 55 0 56 56 0 55 0 -3 -52z m-2128 -8 l0 -50 -50 0 -50 0
0 50 0 50 50 0 50 0 0 -50z m200 0 l0 -50 -45 0 -45 0 0 50 0 50 45 0 45 0 0
-50z m751 40 c5 0 9 -18 9 -39 0 -41 -11 -51 -55 -51 -31 0 -38 14 -31 55 7
33 26 47 54 39 8 -2 18 -4 23 -4z m387 -27 c-3 -36 -5 -38 -38 -38 -32 0 -35
3 -38 32 -3 26 1 32 20 36 57 11 59 9 56 -30z m980 -15 l3 -48 -50 0 -51 0 0
51 0 50 48 -3 47 -3 3 -47z m-1724 -389 c3 -17 6 -60 6 -95 l0 -64 -57 0
c-111 -1 -242 -19 -285 -41 -53 -27 -133 -103 -164 -155 -83 -142 -83 -401 1
-571 42 -84 94 -135 189 -181 87 -43 131 -51 261 -52 163 0 155 5 152 -104
l-2 -91 -145 1 c-116 1 -162 5 -230 23 -189 50 -318 151 -398 312 -125 253
-131 576 -14 805 34 67 118 142 207 185 93 45 158 56 346 58 l127 1 6 -31z
m891 -33 c4 -34 5 -77 3 -96 l-3 -35 -137 -3 -138 -3 0 -497 c0 -463 -9 -1053
-15 -1060 -4 -4 -62 -5 -117 -2 -46 3 -46 3 -52 44 -3 23 -9 373 -12 779 l-7
737 -133 0 c-73 0 -134 3 -136 8 -2 4 -2 49 0 100 l3 93 369 -2 369 -2 6 -61z
m880 -135 c-4 -3 -128 -5 -276 -5 l-269 2 0 -155 c0 -87 -4 -163 -10 -174 -10
-18 -5 -19 202 -21 117 -2 246 -2 286 -1 l72 2 0 -99 0 -98 -67 -7 c-79 -9
-410 -8 -466 1 -36 6 -37 5 -29 -18 6 -19 7 -269 3 -565 l-1 -53 -101 0 -101
0 4 316 3 315 -97 -3 -98 -3 0 101 0 102 100 7 100 7 0 269 0 269 373 2 372 3
3 -94 c1 -51 0 -96 -3 -100z"/>
<path d="M3165 6886 c-59 -26 -85 -82 -65 -142 16 -48 53 -74 107 -74 38 0 50
5 79 34 28 28 34 41 34 78 0 52 -21 85 -66 104 -40 17 -51 17 -89 0z"/>
<path d="M7289 6861 c-24 -24 -29 -38 -29 -76 0 -40 5 -52 34 -81 29 -29 41
-34 79 -34 111 0 157 132 69 200 -17 14 -40 20 -74 20 -41 0 -54 -5 -79 -29z"/>
<path d="M7647 6368 c-25 -20 -38 -64 -27 -93 10 -26 57 -55 90 -55 54 0 84
105 42 143 -22 20 -81 22 -105 5z"/>
<path d="M2829 6351 c-17 -18 -29 -40 -29 -56 0 -40 50 -85 94 -85 80 0 107
118 35 155 -42 22 -67 18 -100 -14z"/>
<path d="M7180 6190 c0 -11 5 -20 10 -20 6 0 10 9 10 20 0 11 -4 20 -10 20 -5
0 -10 -9 -10 -20z"/>
<path d="M3355 6216 c-18 -28 -11 -53 18 -62 35 -11 63 46 35 74 -18 18 -36
14 -53 -12z"/>
<path d="M7490 4447 c-27 -21 -50 -60 -50 -85 0 -57 64 -122 122 -122 56 0
119 87 104 144 -3 13 -18 35 -32 49 -22 22 -36 27 -78 27 -28 0 -58 -6 -66
-13z"/>
<path d="M2994 4450 c-11 -4 -33 -22 -47 -40 -38 -45 -36 -89 7 -134 28 -31
40 -36 78 -36 31 0 51 6 67 21 66 62 55 141 -24 179 -45 22 -50 23 -81 10z"/>
<path d="M3609 3651 c-29 -29 -39 -47 -39 -71 0 -100 126 -159 200 -92 80 71
25 202 -85 202 -30 0 -45 -8 -76 -39z"/>
<path d="M6838 3681 c-98 -49 -96 -160 3 -215 46 -25 95 -16 137 25 89 87 -29
246 -140 190z"/>
<path d="M6025 1843 c-62 -15 -75 -84 -24 -127 37 -31 67 -33 103 -5 34 27 34
68 0 108 -25 30 -38 34 -79 24z"/>
<path d="M4507 1822 c-31 -32 -34 -58 -11 -90 24 -35 51 -46 84 -32 51 21 66
92 27 128 -32 30 -68 28 -100 -6z"/>
<path d="M5255 1395 c-32 -31 -32 -66 1 -104 30 -36 42 -38 77 -11 38 30 46
84 16 116 -29 31 -63 31 -94 -1z"/>
</g>
</svg>
